<?xml version="1.0" encoding="utf-8"?>
<!-- Generator: Adobe Illustrator 21.0.2, SVG Export Plug-In . SVG Version: 6.00 Build 0)  -->
<svg version="1.1" id="Layer_1" xmlns="http://www.w3.org/2000/svg" xmlns:xlink="http://www.w3.org/1999/xlink" x="0px" y="0px"
	 viewBox="0 0 100 100" style="enable-background:new 0 0 100 100;" xml:space="preserve">
<style type="text/css">
	.st0{display:none;}
	.st1{display:inline;fill:none;stroke:#231F20;stroke-width:2;stroke-miterlimit:10;}
	.st2{display:inline;}
	.st3{fill:none;stroke:#000000;stroke-width:2;stroke-miterlimit:10;}
	.st4{display:inline;fill:none;stroke:#000000;stroke-width:2;stroke-miterlimit:10;}
	.st5{fill:none;}
	.st6{fill:none;stroke:#000000;stroke-width:4;stroke-miterlimit:10;}
</style>
<g class="st0">
	<path class="st1" d="M63.9,71.7c0-6.6-4.6-12.1-10.8-13.4v-3.4c2.3-1.1,3.9-3.4,3.9-6.2c0-0.6,0-2.8,0-3.4c0-3.8-3.1-6.8-6.8-6.8
		c-3.8,0-6.8,3.1-6.8,6.8c0,0.6,0,2.8,0,3.4c0,2.7,1.6,5,3.8,6.1v3.5c-6.1,1.4-10.7,6.8-10.7,13.4C36.5,71.7,63.9,71.7,63.9,71.7z"
		/>
	<path class="st1" d="M57.1,43.3c1-0.6,2.1-1.1,3.2-1.3v-2.6c-1.7-0.8-2.9-2.6-2.9-4.6c0-0.4,0-2.1,0-2.6c0-2.9,2.3-5.2,5.2-5.2
		s5.2,2.3,5.2,5.2c0,0.4,0,2.1,0,2.6c0,2.1-1.2,3.8-3,4.7V42c4.7,1,8.2,5.1,8.2,10.1H56.2"/>
	<path class="st1" d="M43.7,43.3c-1-0.6-2.1-1.1-3.2-1.3v-2.6c1.7-0.8,3-2.6,3-4.7c0-0.4,0-2.1,0-2.6c0-2.9-2.3-5.2-5.2-5.2
		c-2.8,0-5.2,2.3-5.2,5.2c0,0.4,0,2.1,0,2.6c0,2,1.2,3.8,2.9,4.6V42c-4.6,1-8.1,5.2-8.1,10.1h15.8"/>
</g>
<g class="st0">
	<polyline class="st1" points="25.8,32.3 31.3,32.3 40.5,63.1 64.6,63.1 68.5,37.6 32.9,37.6 	"/>
	<ellipse class="st1" cx="43.6" cy="69.9" rx="3.1" ry="3.1"/>
	<circle class="st1" cx="61.1" cy="70.1" r="3.1"/>
	<line class="st1" x1="38.9" y1="57.8" x2="41.7" y2="67.2"/>
	<line class="st1" x1="47" y1="69.3" x2="58" y2="69.3"/>
</g>
<g class="st0">
	<g class="st2">
		<g>
			<rect x="23.2" y="44.2" class="st3" width="45.2" height="24.7"/>
		</g>
		<circle class="st3" cx="46" cy="56.5" r="7.7"/>
		<line class="st3" x1="27.9" y1="48.9" x2="27.9" y2="64.2"/>
		<line class="st3" x1="63.8" y1="48.9" x2="63.8" y2="64.2"/>
	</g>
	<g class="st2">
		<g>
			<polyline class="st3" points="28.7,44.2 28.7,38.2 73.9,38.2 73.9,62.9 68.4,62.9 			"/>
		</g>
	</g>
	<g class="st2">
		<g>
			<polyline class="st3" points="33.8,38.7 33.8,32.7 79,32.7 79,57.4 73.5,57.4 			"/>
		</g>
	</g>
</g>
<g class="st0">
	<g class="st2">
		<circle class="st3" cx="50.8" cy="49.4" r="20.2"/>
		<line class="st3" x1="50.4" y1="34.2" x2="50.4" y2="53.3"/>
		<line class="st3" x1="50.4" y1="53.3" x2="57" y2="46.7"/>
	</g>
	<circle class="st4" cx="50.8" cy="49.4" r="25.2"/>
</g>
<g>
	<path class="st5" d="M7,75.5"/>
	<polygon class="st6" points="7,56.7 24.3,46.9 41.2,56.7 41.2,75.5 24.1,86.1 7,75.5 	"/>
	<line class="st6" x1="12.6" y1="59" x2="24.1" y2="52.3"/>
	<line class="st6" x1="36.5" y1="60" x2="36.5" y2="73"/>
	<line class="st6" x1="12.6" y1="73" x2="22.5" y2="79.4"/>
	<polyline class="st6" points="41.2,56.7 55.7,46.9 60.5,46.9 74.9,56.7 	"/>
	<line class="st6" x1="55.7" y1="46.9" x2="55.7" y2="29"/>
	<line class="st6" x1="60.5" y1="46.9" x2="60.5" y2="29"/>
	<circle class="st6" cx="83.2" cy="61.3" r="5.7"/>
	<circle class="st6" cx="58" cy="19.6" r="5.7"/>
	<ellipse class="st6" cx="92.4" cy="55" rx="0.7" ry="0.6"/>
</g>
</svg>
