<?xml version="1.0" encoding="utf-8"?>
<!-- Generator: Adobe Illustrator 21.0.2, SVG Export Plug-In . SVG Version: 6.00 Build 0)  -->
<svg version="1.1" id="Слой_1" xmlns="http://www.w3.org/2000/svg" xmlns:xlink="http://www.w3.org/1999/xlink" x="0px" y="0px"
	 viewBox="0 0 394 184" style="enable-background:new 0 0 394 184;" xml:space="preserve">
<style type="text/css">
	.st0{fill:#FFFFFF;}
</style>
<g>
	<g>
		<path class="st0" d="M268.4,125.1c-0.3,0.6-1.1,1-1.9,1c-0.8,0-1.4-0.2-1.8-0.7c-0.4-0.5-0.7-1.1-0.7-1.8c0-0.8,0.2-1.4,0.7-1.8
			c0.4-0.5,1-0.7,1.8-0.7c0.9,0,1.6,0.4,1.9,1l0.1,0.1l2-1.2l-0.1-0.1c-0.8-1.3-2.3-2.1-4-2.1c-1.4,0-2.5,0.5-3.4,1.4
			c-0.9,0.9-1.4,2.1-1.4,3.4c0,1.4,0.5,2.5,1.4,3.4l0,0c0.9,0.9,2.1,1.4,3.4,1.4c1.7,0,3.2-0.8,4-2.1l0.1-0.1l-2-1.2L268.4,125.1z"
			/>
		<path class="st0" d="M338.6,125.1c-0.3,0.6-1.1,1-1.9,1c-0.8,0-1.4-0.2-1.8-0.7c-0.4-0.5-0.7-1.1-0.7-1.8s0.2-1.4,0.7-1.8
			c0.4-0.5,1-0.7,1.8-0.7c0.9,0,1.6,0.4,1.9,1l0.1,0.1l2-1.2l-0.1-0.1c-0.8-1.3-2.3-2.1-4-2.1c-1.4,0-2.5,0.5-3.4,1.4
			c-0.9,0.9-1.4,2.1-1.4,3.4c0,1.4,0.5,2.5,1.4,3.4l0,0c0.9,0.9,2.1,1.4,3.4,1.4c1.7,0,3.2-0.8,4-2.1l0.1-0.1l-2-1.2L338.6,125.1z"
			/>
		<path class="st0" d="M179.5,128v-8.8h2.3l4.2,5.4v-5.4h2.3v8.8H186l-4.2-5.4v5.4H179.5z"/>
		<path class="st0" d="M197.8,126.5h-3.3l-0.5,1.5h-2.4l3.3-8.8h2.5l3.3,8.8h-2.4L197.8,126.5z M197.2,124.7l-1-2.9l-1,2.9H197.2z"
			/>
		<path class="st0" d="M207.1,121.1v6.9h-2.3v-6.9h-1.9v-1.9h6v1.9H207.1z"/>
		<path class="st0" d="M214.6,119.2v4.8c0,0.3,0,0.5,0,0.8c0,0.3,0.1,0.5,0.2,0.7c0.1,0.2,0.3,0.4,0.5,0.5c0.2,0.1,0.5,0.2,0.9,0.2
			c0.4,0,0.7-0.1,0.9-0.2c0.2-0.1,0.4-0.3,0.5-0.5c0.1-0.2,0.2-0.5,0.2-0.7c0-0.3,0-0.5,0-0.8v-4.8h2.3v5.1c0,1.4-0.3,2.4-0.9,3
			c-0.6,0.6-1.6,0.9-2.9,0.9c-1.3,0-2.3-0.3-2.9-0.9c-0.6-0.6-0.9-1.6-0.9-3v-5.1H214.6z"/>
		<path class="st0" d="M231.4,128h-2.8l-2.2-3.4v3.4h-2.3v-8.8h3.6c0.5,0,0.9,0.1,1.3,0.2c0.4,0.1,0.7,0.3,0.9,0.6
			c0.2,0.2,0.4,0.5,0.5,0.9c0.1,0.3,0.2,0.7,0.2,1c0,0.7-0.2,1.2-0.5,1.6c-0.3,0.4-0.8,0.7-1.4,0.8L231.4,128z M226.4,123.1h0.4
			c0.5,0,0.8-0.1,1-0.3c0.2-0.2,0.4-0.5,0.4-0.8c0-0.3-0.1-0.6-0.4-0.8c-0.2-0.2-0.6-0.3-1-0.3h-0.4V123.1z"/>
		<path class="st0" d="M240.1,126.5h-3.3l-0.5,1.5h-2.4l3.3-8.8h2.5l3.3,8.8h-2.4L240.1,126.5z M239.5,124.7l-1-2.9l-1,2.9H239.5z"
			/>
		<path class="st0" d="M248.7,119.2v6.9h2.7v1.9h-5v-8.8H248.7z"/>
		<path class="st0" d="M272.7,123.6c0-0.7,0.1-1.3,0.4-1.8c0.2-0.6,0.6-1.1,1-1.5c0.4-0.4,0.9-0.7,1.5-1c0.6-0.2,1.2-0.4,2-0.4
			c0.7,0,1.4,0.1,2,0.4c0.6,0.2,1.1,0.6,1.5,1c0.4,0.4,0.8,0.9,1,1.5c0.2,0.6,0.4,1.2,0.4,1.8c0,0.7-0.1,1.3-0.4,1.8
			c-0.2,0.6-0.6,1.1-1,1.5c-0.4,0.4-0.9,0.7-1.5,1c-0.6,0.2-1.3,0.4-2,0.4c-0.7,0-1.4-0.1-2-0.4c-0.6-0.2-1.1-0.6-1.5-1
			c-0.4-0.4-0.8-0.9-1-1.5C272.8,124.9,272.7,124.3,272.7,123.6z M275.1,123.6c0,0.3,0.1,0.7,0.2,1c0.1,0.3,0.3,0.6,0.5,0.8
			c0.2,0.2,0.5,0.4,0.8,0.5c0.3,0.1,0.6,0.2,0.9,0.2c0.3,0,0.7-0.1,0.9-0.2c0.3-0.1,0.6-0.3,0.8-0.5c0.2-0.2,0.4-0.5,0.5-0.8
			c0.1-0.3,0.2-0.6,0.2-1c0-0.3-0.1-0.7-0.2-1c-0.1-0.3-0.3-0.6-0.5-0.8c-0.2-0.2-0.5-0.4-0.8-0.5c-0.3-0.1-0.6-0.2-0.9-0.2
			c-0.3,0-0.7,0.1-0.9,0.2c-0.3,0.1-0.6,0.3-0.8,0.5c-0.2,0.2-0.4,0.5-0.5,0.8C275.1,122.9,275.1,123.3,275.1,123.6z"/>
		<path class="st0" d="M290.3,121.5c-0.2-0.2-0.5-0.4-0.7-0.4c-0.2-0.1-0.5-0.1-0.7-0.1c-0.3,0-0.5,0.1-0.7,0.2
			c-0.2,0.1-0.3,0.3-0.3,0.5c0,0.2,0,0.3,0.1,0.4c0.1,0.1,0.2,0.2,0.4,0.3c0.2,0.1,0.3,0.1,0.5,0.2c0.2,0.1,0.4,0.1,0.6,0.2
			c0.7,0.2,1.3,0.6,1.6,1c0.3,0.4,0.5,1,0.5,1.6c0,0.5-0.1,0.9-0.2,1.2c-0.2,0.4-0.4,0.7-0.7,0.9c-0.3,0.3-0.6,0.5-1.1,0.6
			c-0.4,0.1-0.9,0.2-1.4,0.2c-1.1,0-2.1-0.3-3.1-1l1-1.8c0.3,0.3,0.7,0.5,1,0.7c0.3,0.1,0.7,0.2,1,0.2c0.4,0,0.7-0.1,0.8-0.3
			c0.2-0.2,0.3-0.4,0.3-0.6c0-0.1,0-0.2-0.1-0.3c0-0.1-0.1-0.2-0.2-0.3c-0.1-0.1-0.3-0.2-0.4-0.2c-0.2-0.1-0.4-0.1-0.6-0.2
			c-0.3-0.1-0.6-0.2-0.9-0.3c-0.3-0.1-0.5-0.3-0.8-0.4c-0.2-0.2-0.4-0.4-0.5-0.7c-0.1-0.3-0.2-0.6-0.2-1.1c0-0.4,0.1-0.8,0.2-1.2
			c0.1-0.4,0.3-0.7,0.6-0.9c0.3-0.3,0.6-0.4,1-0.6c0.4-0.1,0.8-0.2,1.3-0.2c0.4,0,0.9,0.1,1.4,0.2c0.5,0.1,0.9,0.3,1.4,0.5
			L290.3,121.5z"/>
		<path class="st0" d="M313.6,121.1h-2.7v1.5h2.6v1.9h-2.6v1.5h2.7v1.9h-5v-8.8h5V121.1z"/>
		<path class="st0" d="M321.1,121.1v6.9h-2.3v-6.9h-1.9v-1.9h6v1.9H321.1z"/>
		<path class="st0" d="M328.8,119.2v8.8h-2.3v-8.8H328.8z"/>
		<polygon class="st0" points="304.1,119.2 302.1,119.2 302.1,119.2 299.7,123.1 297.3,119.2 297.3,119.2 297.3,119.2 295.3,119.2 
			295.1,119.2 295.1,128 295.3,128 297.3,128 297.3,128 297.3,123.6 299.6,127.3 299.8,127.3 302.1,123.6 302.1,128 302.1,128 
			304.1,128 304.4,128 304.4,119.2 		"/>
		<path class="st0" d="M348.4,121.5c-0.2-0.2-0.5-0.4-0.7-0.4c-0.2-0.1-0.5-0.1-0.7-0.1c-0.3,0-0.5,0.1-0.7,0.2s-0.3,0.3-0.3,0.5
			c0,0.2,0,0.3,0.1,0.4c0.1,0.1,0.2,0.2,0.4,0.3c0.2,0.1,0.3,0.1,0.5,0.2c0.2,0.1,0.4,0.1,0.6,0.2c0.7,0.2,1.3,0.6,1.6,1
			c0.3,0.4,0.5,1,0.5,1.6c0,0.5-0.1,0.9-0.2,1.2c-0.2,0.4-0.4,0.7-0.7,0.9c-0.3,0.3-0.6,0.5-1.1,0.6c-0.4,0.1-0.9,0.2-1.4,0.2
			c-1.1,0-2.1-0.3-3.1-1l1-1.8c0.3,0.3,0.7,0.5,1,0.7c0.3,0.1,0.7,0.2,1,0.2c0.4,0,0.7-0.1,0.8-0.3c0.2-0.2,0.3-0.4,0.3-0.6
			c0-0.1,0-0.2-0.1-0.3c0-0.1-0.1-0.2-0.2-0.3c-0.1-0.1-0.3-0.2-0.4-0.2c-0.2-0.1-0.4-0.1-0.6-0.2c-0.3-0.1-0.6-0.2-0.9-0.3
			c-0.3-0.1-0.5-0.3-0.8-0.4c-0.2-0.2-0.4-0.4-0.5-0.7c-0.1-0.3-0.2-0.6-0.2-1.1c0-0.4,0.1-0.8,0.2-1.2c0.1-0.4,0.3-0.7,0.6-0.9
			c0.3-0.3,0.6-0.4,1-0.6c0.4-0.1,0.8-0.2,1.3-0.2c0.4,0,0.9,0.1,1.4,0.2c0.5,0.1,0.9,0.3,1.4,0.5L348.4,121.5z"/>
	</g>
	<path class="st0" d="M107.5,28.8c-34.9,0-63.2,28.3-63.2,63.2c0,34.9,28.3,63.2,63.2,63.2c34.9,0,63.2-28.3,63.2-63.2
		C170.7,57.1,142.4,28.8,107.5,28.8z M107.5,136.4c-24.5,0-44.4-19.9-44.4-44.4c0-24.5,19.9-44.4,44.4-44.4
		c24.5,0,44.4,19.9,44.4,44.4C151.9,116.5,132,136.4,107.5,136.4z"/>
	<path class="st0" d="M223.9,86.2c0-6.2-1.3-10.8-3.9-13.7c-2.6-2.9-6.2-4.4-10.9-4.4c-2.8,0-5.3,0.7-7.5,2
		c-2.2,1.3-4.1,3.1-5.6,5.5l-0.5-6.6h-16v5l4.4,2.3v26.2l-4.4,2.4v5h20.3v-5l-3.5-2.4v-21c0.9-1.2,2-2.2,3.3-2.8
		c1.3-0.7,2.8-1,4.4-1c2.5,0,4.4,0.6,5.6,1.9c1.2,1.3,1.9,3.5,1.9,6.5v16.3l-3.8,2.4v5h20.7v-5l-4.4-2.4V86.2z"/>
	<path class="st0" d="M303.7,86.2c0-6.2-1.3-10.8-3.9-13.7c-2.6-2.9-6.2-4.4-10.9-4.4c-2.8,0-5.3,0.7-7.5,2c-1.5,0.9-2.8,2-4,3.3
		l0,0c0,0,0,0-0.1,0.1c-0.6,0.7-1.1,1.4-1.7,2.2l0.1-0.1c-0.3,0.4-0.6,0.8-1,1.3c-0.6-1.7-1.5-3.1-2.5-4.3
		c-2.6-2.9-6.2-4.4-10.9-4.4c-2.8,0-5.3,0.7-7.5,2c-2.2,1.3-4.1,3.1-5.6,5.5l-0.5-6.6h-16v5.1l4.4,2.2v26.2l-4.4,2.4v4.9h20.4v-4.9
		l-3.6-2.4v-21c0.9-1.2,2-2.2,3.3-2.8c1.3-0.7,2.8-1,4.4-1c2.5,0,4.4,0.6,5.6,1.9c1.2,1.3,1.9,3.5,1.9,6.5v16.3l-4.5,2.4v4.9h20.4
		v-4.9l-3.5-2.4V86.2c0-1.6-0.1-3.1-0.3-4.5l0,0c0.9-1.2,2-2.2,3.3-2.8c1.3-0.7,2.8-1,4.4-1c2.5,0,4.4,0.6,5.6,1.9
		c1.2,1.3,1.9,3.5,1.9,6.5v16.3l-4.4,2.4v4.9h20.3V105l-3.5-2.4V86.2z"/>
	<path class="st0" d="M329.9,68.1c-14.5,0-19.7,9.4-19.8,21h0c0,11.6,5.3,21,19.8,21c10.7,0,16.3-5.1,18.6-12.4h-11.3
		c-1.2,4.7-5.5,5-6.9,5h-0.8c-1.6,0-7.2-0.4-7.2-7.7v-2.2h27.2c0.1-1.2,0.2-2.4,0.2-3.6h0C349.7,77.5,344.4,68.1,329.9,68.1z
		 M337.5,85.3h-15.2v-1.8c0-7.2,5.4-7.7,7.1-7.7h1c0,0,0.1,0,0.1,0h0l0,0c1.8,0,7,0.7,7,7.7V85.3z"/>
</g>
</svg>
