<?xml version="1.0" encoding="utf-8"?>
<!-- Generator: Adobe Illustrator 21.0.2, SVG Export Plug-In . SVG Version: 6.00 Build 0)  -->
<svg version="1.1" id="Layer_1" xmlns="http://www.w3.org/2000/svg" xmlns:xlink="http://www.w3.org/1999/xlink" x="0px" y="0px"
	 viewBox="0 0 100 100" style="enable-background:new 0 0 100 100;" xml:space="preserve">
<style type="text/css">
	.st0{display:none;}
	.st1{display:inline;fill:none;stroke:#231F20;stroke-width:2;stroke-miterlimit:10;}
	.st2{display:inline;}
	.st3{fill:none;stroke:#000000;stroke-width:2;stroke-miterlimit:10;}
	.st4{display:inline;fill:none;stroke:#000000;stroke-width:2;stroke-miterlimit:10;}
	.st5{fill:none;stroke:#000000;stroke-width:4;stroke-miterlimit:10;}
</style>
<g class="st0">
	<path class="st1" d="M63.9,71.7c0-6.6-4.6-12.1-10.8-13.4v-3.4c2.3-1.1,3.9-3.4,3.9-6.2c0-0.6,0-2.8,0-3.4c0-3.8-3.1-6.8-6.8-6.8
		c-3.8,0-6.8,3.1-6.8,6.8c0,0.6,0,2.8,0,3.4c0,2.7,1.6,5,3.8,6.1v3.5c-6.1,1.4-10.7,6.8-10.7,13.4C36.5,71.7,63.9,71.7,63.9,71.7z"
		/>
	<path class="st1" d="M57.1,43.3c1-0.6,2.1-1.1,3.2-1.3v-2.6c-1.7-0.8-2.9-2.6-2.9-4.6c0-0.4,0-2.1,0-2.6c0-2.9,2.3-5.2,5.2-5.2
		s5.2,2.3,5.2,5.2c0,0.4,0,2.1,0,2.6c0,2.1-1.2,3.8-3,4.7V42c4.7,1,8.2,5.1,8.2,10.1H56.2"/>
	<path class="st1" d="M43.7,43.3c-1-0.6-2.1-1.1-3.2-1.3v-2.6c1.7-0.8,3-2.6,3-4.7c0-0.4,0-2.1,0-2.6c0-2.9-2.3-5.2-5.2-5.2
		c-2.8,0-5.2,2.3-5.2,5.2c0,0.4,0,2.1,0,2.6c0,2,1.2,3.8,2.9,4.6V42c-4.6,1-8.1,5.2-8.1,10.1h15.8"/>
</g>
<g class="st0">
	<polyline class="st1" points="25.8,32.3 31.3,32.3 40.5,63.1 64.6,63.1 68.5,37.6 32.9,37.6 	"/>
	<ellipse class="st1" cx="43.6" cy="69.9" rx="3.1" ry="3.1"/>
	<circle class="st1" cx="61.1" cy="70.1" r="3.1"/>
	<line class="st1" x1="38.9" y1="57.8" x2="41.7" y2="67.2"/>
	<line class="st1" x1="47" y1="69.3" x2="58" y2="69.3"/>
</g>
<g class="st0">
	<g class="st2">
		<g>
			<rect x="23.2" y="44.2" class="st3" width="45.2" height="24.7"/>
		</g>
		<circle class="st3" cx="46" cy="56.5" r="7.7"/>
		<line class="st3" x1="27.9" y1="48.9" x2="27.9" y2="64.2"/>
		<line class="st3" x1="63.8" y1="48.9" x2="63.8" y2="64.2"/>
	</g>
	<g class="st2">
		<g>
			<polyline class="st3" points="28.7,44.2 28.7,38.2 73.9,38.2 73.9,62.9 68.4,62.9 			"/>
		</g>
	</g>
	<g class="st2">
		<g>
			<polyline class="st3" points="33.8,38.7 33.8,32.7 79,32.7 79,57.4 73.5,57.4 			"/>
		</g>
	</g>
</g>
<g class="st0">
	<g class="st2">
		<circle class="st3" cx="50.8" cy="49.4" r="20.2"/>
		<line class="st3" x1="50.4" y1="34.2" x2="50.4" y2="53.3"/>
		<line class="st3" x1="50.4" y1="53.3" x2="57" y2="46.7"/>
	</g>
	<circle class="st4" cx="50.8" cy="49.4" r="25.2"/>
</g>
<g>
	<ellipse class="st5" cx="20.8" cy="51.2" rx="1.2" ry="1.1"/>
	<path class="st5" d="M20.8,36.4c0,0,0-11.3,4.7-18.6c4.2-6.5,15.5-12,15.5-12V14c0,0-5.4,4.9-8.6,9.4c-4.4,6.2-4.5,14.8-4.5,14.8"
		/>
	<path class="st5" d="M26.6,67"/>
	<path class="st5" d="M63,52.3c-11.5,0-20.9,9.4-20.9,20.9c0,11.5,9.1,20.8,20.7,20.8"/>
	<path class="st5" d="M36.5,53.3c0-0.1,0-0.9,0-1c0-8.7-7-15.7-15.7-15.7s-15.7,7-15.7,15.7c0,8.7,7,15.7,15.7,15.7
		c2,0,4-0.4,5.7-1.1v15.6c-5.2,0-9.4,4.2-9.4,9.4c0,0.9,0.1,1.3,0.4,2.1l62.3,0l0.9-1c5.2-5.3,7.6-11.8,7.6-19.8
		c0-16.4-13.3-29.7-29.7-29.7C49.8,43.5,41.9,47.3,36.5,53.3z"/>
	<path class="st5" d="M41.1,14c0,0,3.8-2.7,5.8-3.6c2.8-1.3,6.4-2.6,6.4-2.6s-0.5,8.2-1.6,12.3c-0.9,3.4-1.5,5-3.8,8.5
		c-1.2,1.8-4.1,5-5.8,6.4C39.7,36.8,32,41.2,32,41.2"/>
	<path class="st5" d="M87.4,73.2c4.5,0,8.1,3.6,8.1,8.1s-3.6,8.1-8.1,8.1c-1.6,0-3.1-0.5-4.4-1.3"/>
</g>
</svg>
